<?xml version="1.0" encoding="UTF-8"?>
<!DOCTYPE svg PUBLIC "-//W3C//DTD SVG 1.1//EN" "http://www.w3.org/Graphics/SVG/1.1/DTD/svg11.dtd">
<!-- Creator: CorelDRAW -->
<svg xmlns="http://www.w3.org/2000/svg" xml:space="preserve" width="2048px" height="2048px" style="shape-rendering:geometricPrecision; text-rendering:geometricPrecision; image-rendering:optimizeQuality; fill-rule:evenodd; clip-rule:evenodd"
viewBox="0 0 2048 2048"
 xmlns:xlink="http://www.w3.org/1999/xlink">
 <defs>
  <style type="text/css">
   <![CDATA[
    .fil1 {fill:none}
    .fil0 {fill:#EF5350}
    .fil2 {fill:#EF9A9A}
    .fil4 {fill:#689F38;fill-rule:nonzero}
    .fil3 {fill:#7CB342;fill-rule:nonzero}
   ]]>
  </style>
 </defs>
 <g id="Layer_x0020_1">
  <metadata id="CorelCorpID_0Corel-Layer"/>
  <ellipse class="fil0" cx="1037.6" cy="1424" rx="722.399" ry="304"/>
  <rect class="fil1" width="2048" height="2048"/>
  <rect class="fil1" x="255.999" y="255.999" width="1536" height="1536"/>
  <rect class="fil1" x="255.999" y="255.999" width="1536" height="1536"/>
  <ellipse class="fil2" cx="1037.6" cy="1424" rx="306.401" ry="128.939"/>
  <g id="_348094144">
   <path id="_348094312" class="fil3" d="M1331.83 400.653c78.7666,78.7713 127.48,187.608 127.48,307.834 0,86.1343 -58.3465,215.806 -133.186,346.711 -76.7292,134.209 -170.255,268.324 -237.795,360.507 -7.50119,10.2626 -17.2512,18.4559 -28.3418,24.0969 -10.95,5.5689 -23.2394,8.59016 -35.9752,8.59016 -12.6744,0 -24.9638,-3.02835 -35.941,-8.61142 -11.1024,-5.64804 -20.8748,-13.8331 -28.3736,-24.0756 -67.5485,-92.1839 -161.081,-226.301 -237.81,-360.507 -74.843,-130.904 -133.189,-260.576 -133.189,-346.711 0,-120.216 48.7217,-229.05 127.495,-307.824 78.769,-78.769 187.598,-127.492 307.819,-127.492 120.233,0 229.054,48.7158 307.818,127.481z"/>
   <path id="_348094216" class="fil4" d="M891.558 566.84c-33.8859,33.8823 -54.8386,80.7071 -54.8386,132.452 0,51.75 20.9055,98.5253 54.7075,132.298 33.8788,33.8481 80.7473,54.7937 132.582,54.7937 51.8351,0 98.6965,-20.9433 132.569,-54.789 33.8008,-33.7748 54.7016,-80.5501 54.7016,-132.302 0,-51.7477 -20.9492,-98.5737 -54.8304,-132.455 -33.8799,-33.8859 -80.7001,-54.8386 -132.441,-54.8386 -51.7406,0 -98.5666,20.9551 -132.451,54.841z"/>
  </g>
 </g>
</svg>
